<?xml version="1.0"?>
<svg xmlns="http://www.w3.org/2000/svg" xmlns:xlink="http://www.w3.org/1999/xlink" data-noselect="" viewBox="0 0 800 600" width="800" height="600" preserveAspectRatio="none" version="1.1"><defs/> <g id="background" data-noselect=""><rect fill="#FFFFFF" width="800" height="600" data-noselect=""/> <!----></g> <g id="shape_2Tudol8jbc" transform="translate(343,237) rotate(0,50,50) scale(1,1)" filter="" style="cursor: move; opacity: 1;"><g><svg xmlns="http://www.w3.org/2000/svg" xmlns:xlink="http://www.w3.org/1999/xlink" version="1.1" x="0px" y="0px" viewBox="0 0 100 100" enable-background="new 0 0 100 100" xml:space="preserve" class="style-removed" width="100" height="100" preserveAspectRatio="none" data-parent="shape_2Tudol8jbc"><path d="M89.3,30.3c0-0.1-0.1-0.1-0.1-0.1C82,15.8,67.1,6,50,6c-8.8,0-17,2.6-23.9,7.1c-0.1,0.1-0.2,0.1-0.4,0.2  c-0.1,0-0.1,0.1-0.1,0.1c-8,5.3-14.1,13.2-17.3,22.5c-0.1,0.1-0.1,0.2-0.1,0.3C6.8,40.6,6,45.2,6,50c0,7,1.7,13.7,4.6,19.6  c0,0,0,0.1,0.1,0.1c0.1,0.2,0.2,0.3,0.3,0.5c6.8,13.1,19.9,22.3,35.3,23.6c0.1,0,0.1,0,0.2,0c0.1,0,0.1,0,0.2,0  c1.1,0.1,2.2,0.1,3.4,0.1c8.9,0,17.2-2.7,24.1-7.2c0,0,0.1,0,0.1-0.1c0,0,0.1-0.1,0.1-0.1c6.5-4.4,11.8-10.4,15.3-17.5  c0,0,0-0.1,0.1-0.1c2.8-5.8,4.3-12.2,4.3-19c0-7-1.6-13.6-4.5-19.4C89.4,30.5,89.4,30.4,89.3,30.3z M86.8,31.9  c2.9,6.2,2.1,13.8-2.4,21.5c-1.4,2.4-3.1,4.8-5.1,7c-1.8-5.5-2-9.7-2.3-15c-0.2-3.8-0.4-8.1-1.2-13.6c-1.2-8-4.6-14.1-8.4-19  C75.8,16.8,82.7,23.6,86.8,31.9z M61.7,10.7c4.7,5.3,9.7,12.1,11.2,21.7c0.8,5.3,1,9.5,1.2,13.2c0.3,5.7,0.5,10.7,3,17.3  c-1.8,1.8-3.8,3.5-6,5.1c-3.8-8.1-9.2-17.1-13.2-23.2c-6.3-9.5-12.9-18.1-18.6-24c-3.7-3.8-6.4-5.9-8.3-7C36.5,10.7,43.1,9,50,9  C54.1,9,58,9.6,61.7,10.7z M27.5,15.8C29.6,15,41.1,25,55.3,46.5c6.1,9.2,10.4,17.1,13.2,23.3c-2.1,1.4-4.3,2.7-6.7,3.9  c-0.3,0.1-0.5,0.2-0.8,0.4c-3-5-8.4-7.3-15.1-10.1c-1.4-0.6-2.9-1.2-4.4-1.9l-0.8-0.4c-8.9-3.9-25.3-11.3-29.5-25  C14.2,28,20,20.7,27.5,15.8z M72.6,84.2c-4.7,3.1-10,5.3-15.8,6.2c1.8-1.2,3.5-2.6,4.6-4.3c1.8-2.8,2.1-6,0.9-9.4  c0.3-0.1,0.6-0.3,0.8-0.4c2.3-1.1,4.5-2.4,6.5-3.8C72.6,79.2,73.4,83.4,72.6,84.2z M22.3,80.2c2.8,1.2,6,2,9.6,2.5  c1.7,0.2,3.4,0.3,5.2,0.3c7.3,0,15.1-1.7,22.7-5c0.8,2.4,0.6,4.5-0.7,6.5c-2.8,4.3-9.8,6.4-12.3,6.4C37.3,90.1,28.8,86.2,22.3,80.2z   M9.9,41.4c6.1,12.5,21.2,19.2,29.6,23l0.8,0.4c1.6,0.7,3.1,1.3,4.5,1.9c6.2,2.6,10.9,4.6,13.5,8.6c-8.8,3.8-18,5.3-26.2,4.4  c-8.8-1-15.4-4.9-18.6-10.8C10.7,63.2,9,56.8,9,50C9,47,9.3,44.1,9.9,41.4z M75.7,81.9c-0.3-2.9-1.6-6.8-3.4-11.1  c2.2-1.6,4.2-3.3,6-5c1.6,2.8,3.7,4.7,6.1,5.2c0.3,0.1,0.5,0.1,0.8,0.1C82.7,75.2,79.4,78.9,75.7,81.9z M87,67.6  c-0.5,0.5-1.3,0.6-2,0.5c-1.7-0.3-3.3-2-4.4-4.5c2.5-2.7,4.7-5.6,6.5-8.6c1.8-3.1,3-6.2,3.8-9.2c0.1,1.4,0.2,2.8,0.2,4.3  C91,56.3,89.6,62.2,87,67.6z" fill="#000000" stroke-width="0"/></svg></g></g>  <!----></svg>
